<?xml version="1.0" encoding="UTF-8"?>
<svg id="Layer_1" data-name="Layer 1" xmlns="http://www.w3.org/2000/svg" viewBox="0 0 2000 2000">
  <path d="M1531.75,824.08c93.73-3,170.72,73.3,175.74,166.06v785.03c-7.39,88.26-72.26,158.6-161.91,166.22H455.46c-75.16-6.97-138.36-59.56-156.24-132.82-12.49-275.19-3.47-553.04-4.64-829.13,9.29-87.74,85.8-158.58,174.72-155.36,1.47-175.66-19.64-343,71.05-501.21C733.38-13.87,1222.45-32.82,1439.62,289.26c112.45,166.77,92.2,342.54,92.13,534.82ZM1410.68,824.06v-283.2c0-40.68-32.14-121.91-52.66-158.28-154.65-274.01-560.46-273.8-714.99,0-20.52,36.36-52.66,117.6-52.66,158.28v283.2h820.31ZM460.43,942.17c-19.95,5.5-37.44,12.99-44.01,34.11l-1.99,795.18c.34,33.2,29.51,51.97,60.56,52.72h1051.06c29.89-.13,60.87-20.06,60.56-52.72l-1.93-795.24c-8.03-17.57-19.22-27.29-38-32.31l-1086.24-1.75Z"/>
  <path d="M1059.57,1457.3c-9.71,56.08,31.7,193.4-60.83,191.09-88.89-2.22-47.02-134.93-57.26-191.08-191.34-64.99-135.92-349.92,69.01-340.44,192.33,8.9,230.43,282.61,49.09,340.44ZM995.78,1235.03c-79.54,6.37-69.01,129.89,18.17,116.1,65.34-10.33,58.76-122.27-18.17-116.1Z"/>
</svg>